<svg width="50" height="50" viewBox="0 0 50 50" fill="none" xmlns="http://www.w3.org/2000/svg">
<path fill-rule="evenodd" clip-rule="evenodd" d="M50 25C50 38.8071 38.8071 50 25 50C11.1929 50 0 38.8071 0 25C0 11.1929 11.1929 0 25 0C38.8071 0 50 11.1929 50 25ZM25 42C28.866 42 32 38.866 32 35C32 32.2076 30.365 29.7971 28 28.6736V9C28 8.44769 27.5523 8 27 8H23C22.4477 8 22 8.44769 22 9V28.6736C19.635 29.7971 18 32.2076 18 35C18 38.866 21.134 42 25 42Z" fill="#FDBFBF"/>
<path fill-rule="evenodd" clip-rule="evenodd" d="M32 35C32 38.866 28.866 42 25 42C21.134 42 18 38.866 18 35C18 32.2076 19.6351 29.7971 22 28.6737V28.25V27.5815C19.0682 28.7683 17 31.6426 17 35C17 39.4183 20.5817 43 25 43C29.4183 43 33 39.4183 33 35C33 31.6426 30.9318 28.7683 28 27.5815V28.6737C30.3649 29.7971 32 32.2076 32 35Z" fill="white"/>
<path fill-rule="evenodd" clip-rule="evenodd" d="M23 8H27C27.5523 8 28 8.44772 28 9V28H28.75L29 28.125V9C29 7.89543 28.1046 7 27 7H23C21.8954 7 21 7.89543 21 9V28.125L21.25 28H22V9C22 8.44772 22.4477 8 23 8Z" fill="white"/>
</svg>
