<svg width="50" height="50" viewBox="0 0 50 50" fill="none" xmlns="http://www.w3.org/2000/svg">
<path d="M25.2353 10.0004L25.3136 9.9382L25.2353 9.83951L25.1569 9.9382L25.2353 10.0004ZM25.2353 10.0004C25.3136 9.9382 25.3136 9.93825 25.3137 9.93836L25.3141 9.93882L25.3155 9.94062L25.3211 9.9477L25.3432 9.97564C25.3626 10.0003 25.3914 10.037 25.429 10.085C25.5041 10.181 25.6142 10.3226 25.7543 10.5047C26.0345 10.8689 26.4347 11.3955 26.9149 12.0453C27.8753 13.3449 29.1559 15.1375 30.4367 17.1097C31.7173 19.0816 32.9993 21.2348 33.9615 23.255C34.922 25.2717 35.5705 27.1692 35.5705 28.6255C35.5705 34.4093 30.9445 39.1003 25.2353 39.1003C19.526 39.1003 14.9 34.4091 14.9 28.6255C14.9 27.1693 15.5485 25.2718 16.509 23.2551C17.4712 21.2348 18.7532 19.0817 20.0338 17.1098C21.3146 15.1376 22.5952 13.3449 23.5556 12.0454C24.0358 11.3955 24.436 10.8689 24.7162 10.5047C24.8563 10.3226 24.9664 10.181 25.0415 10.085C25.0791 10.037 25.1079 10.0003 25.1273 9.97564L25.1494 9.9477L25.155 9.94062L25.1564 9.93882L25.1568 9.93836C25.1569 9.93825 25.1569 9.9382 25.2353 10.0004Z" stroke="white" stroke-width="0.2"/>
<path d="M25.2353 10L25.3136 9.93783L25.2353 9.83915L25.1569 9.93783L25.2353 10ZM25.2353 10C25.1569 9.93783 25.1569 9.93789 25.1568 9.93799L25.1564 9.93845L25.155 9.94025L25.1494 9.94733L25.1273 9.97527C25.1079 9.99994 25.0791 10.0366 25.0415 10.0846C24.9664 10.1807 24.8563 10.3222 24.7162 10.5043C24.436 10.8685 24.0358 11.3952 23.5556 12.045C22.5952 13.3445 21.3146 15.1372 20.0338 17.1094C18.7532 19.0812 17.4712 21.2344 16.509 23.2546C15.5485 25.2713 14.9 27.1688 14.9 28.6251C14.9 34.4089 19.526 39.0999 25.2353 39.0999C30.9445 39.0999 35.5705 34.4089 35.5705 28.6251C35.5705 27.1688 34.922 25.2713 33.9615 23.2546C32.9993 21.2344 31.7173 19.0812 30.4367 17.1094C29.1559 15.1372 27.8753 13.3445 26.9149 12.045C26.4347 11.3952 26.0345 10.8685 25.7543 10.5043C25.6142 10.3222 25.5041 10.1807 25.429 10.0846C25.3914 10.0366 25.3626 9.99994 25.3432 9.97527L25.3211 9.94733L25.3155 9.94025L25.3141 9.93845L25.3137 9.93799C25.3136 9.93789 25.3136 9.93783 25.2353 10ZM20.7737 17.59C22.5431 14.8656 24.3276 12.4671 25.2352 11.2782C26.1441 12.4689 27.9323 14.8724 29.7025 17.5987C31.1689 19.8574 32.3343 21.8893 33.167 23.6385C33.655 24.6635 34.0306 25.5971 34.2842 26.4137C34.5535 27.2813 34.6882 28.0247 34.6882 28.6251C34.6882 29.9219 34.4378 31.1791 33.9442 32.3621C33.707 32.9306 33.4133 33.4789 33.0715 33.9918C32.7329 34.4999 32.344 34.9776 31.9157 35.4117C31.4876 35.8457 31.0166 36.2396 30.5158 36.5825C30.0106 36.9285 29.4707 37.2256 28.911 37.4655C27.7471 37.9645 26.5106 38.2175 25.2353 38.2175C23.9599 38.2175 22.7234 37.9645 21.5595 37.4655C20.9998 37.2256 20.4599 36.9285 19.9547 36.5825C19.4539 36.2396 18.9829 35.8457 18.5548 35.4117C18.1265 34.9776 17.7376 34.4999 17.399 33.9918C17.0572 33.4789 16.7636 32.9306 16.5263 32.3621C16.0327 31.1791 15.7824 29.9219 15.7824 28.6251C15.7824 28.0243 15.9172 27.2802 16.1869 26.4118C16.4408 25.5945 16.8169 24.66 17.3056 23.634C18.1393 21.8836 19.3059 19.8502 20.7737 17.59Z" fill="white" stroke="white" stroke-width="0.2"/>
<path fill-rule="evenodd" clip-rule="evenodd" d="M50 25C50 38.8071 38.8071 50 25 50C11.1929 50 0 38.8071 0 25C0 11.1929 11.1929 0 25 0C38.8071 0 50 11.1929 50 25ZM25.2352 10.0003C25.2352 10.0003 35.4703 22.8955 35.4703 28.6253C35.4703 34.3551 30.8879 39 25.2352 39C19.5825 39 15 34.3549 15 28.6253C15 28.6141 15 28.6029 15.0001 28.5916C15.0005 28.5356 15.0019 28.4789 15.0042 28.4215C15.2378 22.596 25.2352 10.0003 25.2352 10.0003Z" fill="#CCF6FF"/>
</svg>
