<svg width="22" height="31" viewBox="0 0 22 31" fill="none" xmlns="http://www.w3.org/2000/svg">
<path d="M11.2353 1L11.3136 0.937831L11.2353 0.839149L11.1569 0.937831L11.2353 1ZM11.2353 1C11.1569 0.937831 11.1569 0.937888 11.1568 0.937995L11.1564 0.938453L11.155 0.940249L11.1494 0.947333L11.1273 0.97527C11.1079 0.999937 11.0791 1.03659 11.0415 1.08461C10.9664 1.18065 10.8563 1.32219 10.7162 1.50431C10.436 1.86855 10.0358 2.39517 9.55557 3.04498C8.59523 4.3445 7.31458 6.13718 6.03376 8.10938C4.75316 10.0812 3.47117 12.2344 2.50898 14.2546C1.54847 16.2713 0.9 18.1688 0.9 19.6251C0.9 25.4089 5.52598 30.0999 11.2353 30.0999C16.9445 30.0999 21.5705 25.4089 21.5705 19.6251C21.5705 18.1688 20.922 16.2713 19.9615 14.2546C18.9993 12.2344 17.7173 10.0812 16.4367 8.10938C15.1559 6.13718 13.8753 4.3445 12.9149 3.04498C12.4347 2.39517 12.0345 1.86855 11.7543 1.50431C11.6142 1.32219 11.5041 1.18065 11.429 1.08461C11.3914 1.03659 11.3626 0.999937 11.3432 0.97527L11.3211 0.947333L11.3155 0.940249L11.3141 0.938453L11.3137 0.937995C11.3136 0.937888 11.3136 0.937831 11.2353 1ZM6.77375 8.58996C8.54307 5.86557 10.3276 3.46714 11.2352 2.27818C12.1441 3.46891 13.9323 5.87235 15.7025 8.59873C17.1689 10.8574 18.3343 12.8893 19.167 14.6385C19.655 15.6635 20.0306 16.5971 20.2842 17.4137C20.5535 18.2813 20.6882 19.0247 20.6882 19.6251C20.6882 20.9219 20.4378 22.1791 19.9442 23.3621C19.707 23.9306 19.4133 24.4789 19.0715 24.9918C18.7329 25.4999 18.344 25.9776 17.9157 26.4117C17.4876 26.8457 17.0166 27.2396 16.5158 27.5825C16.0106 27.9285 15.4707 28.2256 14.911 28.4655C13.7471 28.9645 12.5106 29.2175 11.2353 29.2175C9.95992 29.2175 8.72338 28.9645 7.55951 28.4655C6.99985 28.2256 6.45987 27.9285 5.95467 27.5825C5.45391 27.2396 4.98289 26.8457 4.55477 26.4117C4.1265 25.9776 3.73763 25.4999 3.39903 24.9918C3.05718 24.4789 2.76355 23.9306 2.52635 23.3621C2.0327 22.1791 1.78235 20.9219 1.78235 19.6251C1.78235 19.0243 1.91716 18.2802 2.18693 17.4118C2.4408 16.5945 2.81694 15.66 3.30559 14.634C4.13927 12.8836 5.30587 10.8502 6.77375 8.58996Z" fill="white" stroke="white" stroke-width="0.2"/>
</svg>
