<svg width="50" height="50" viewBox="0 0 50 50" fill="none" xmlns="http://www.w3.org/2000/svg">
<path fill-rule="evenodd" clip-rule="evenodd" d="M25 50C38.8071 50 50 38.8071 50 25C50 11.1929 38.8071 0 25 0C11.1929 0 0 11.1929 0 25C0 38.8071 11.1929 50 25 50ZM24.9999 35C30.5228 35 34.9999 30.5229 34.9999 25C34.9999 19.4771 30.5228 15 24.9999 15C19.4771 15 14.9999 19.4771 14.9999 25C14.9999 30.5229 19.4771 35 24.9999 35Z" fill="#FFD0A6"/>
<path d="M35.5 25C35.5 30.799 30.799 35.5 25 35.5C19.201 35.5 14.5 30.799 14.5 25C14.5 19.201 19.201 14.5 25 14.5C30.799 14.5 35.5 19.201 35.5 25Z" stroke="white"/>
</svg>
