<svg width="50" height="50" viewBox="0 0 50 50" fill="none" xmlns="http://www.w3.org/2000/svg">
<path fill-rule="evenodd" clip-rule="evenodd" d="M50 25C50 38.8071 38.8071 50 25 50C11.1929 50 0 38.8071 0 25C0 11.1929 11.1929 0 25 0C38.8071 0 50 11.1929 50 25ZM13 18C13 15.2386 15.2386 13 18 13H31C33.7614 13 36 15.2386 36 18V31C36 33.7614 33.7614 36 31 36H18C15.2386 36 13 33.7614 13 31V18Z" fill="#9F928F"/>
<rect x="12.5" y="12.5" width="24" height="24" rx="5.5" stroke="white"/>
<circle cx="25" cy="25" r="5.5" stroke="white"/>
</svg>
